<svg width="36" height="42" fill="none" xmlns="http://www.w3.org/2000/svg"><path fill-rule="evenodd" clip-rule="evenodd" d="M11.952 18.268h12.097v10.28H11.952v-10.28zm1.804 1.805h8.488v6.671h-8.488v-6.671z" fill="#000"/><path d="M15.573 18.13v.903h-1.805v-3.27c0-1.124.446-2.2 1.239-2.994A4.243 4.243 0 0118 11.529c1.121 0 2.2.447 2.994 1.24a4.238 4.238 0 011.238 2.993v3.27h-1.804v-3.27c0-.643-.256-1.263-.71-1.718A2.437 2.437 0 0018 13.333a2.44 2.44 0 00-1.718.711 2.431 2.431 0 00-.71 1.718v2.369z" fill="#000"/><path d="M17.193 1.955l-.548-.717L18.077.142l.548.715c.446.58.915 1.141 1.41 1.678a27.959 27.959 0 001.61 1.621 35.54 35.54 0 001.796 1.562 40.507 40.507 0 001.97 1.498c.695.498 1.404.976 2.125 1.434.746.474 1.5.933 2.27 1.371a62.25 62.25 0 002.395 1.304 74.633 74.633 0 003.047 1.49 33.402 33.402 0 01-.163 2.505 38.27 38.27 0 01-.257 1.977 41.697 41.697 0 01-.861 4.114 42.48 42.48 0 01-1.323 4.185 38.905 38.905 0 01-1.787 4.086 34.76 34.76 0 01-1.071 1.95 30.677 30.677 0 01-1.19 1.86 28.189 28.189 0 01-1.312 1.746 24.892 24.892 0 01-1.435 1.61c-.498.51-1.017.994-1.562 1.452a18.66 18.66 0 01-1.689 1.267c-.584.39-1.191.742-1.816 1.058a15.83 15.83 0 01-1.947.822l-.851.294-.59-1.705.852-.295a14.09 14.09 0 001.725-.727c.56-.282 1.103-.599 1.626-.946.53-.355 1.04-.738 1.53-1.148.497-.418.975-.862 1.428-1.33.465-.477.91-.975 1.33-1.493.43-.526.839-1.07 1.227-1.631a28.4 28.4 0 001.121-1.752 31.32 31.32 0 001.015-1.85 37.35 37.35 0 001.707-3.896 41.342 41.342 0 002.09-7.952 34.834 34.834 0 00.345-3.081 72.514 72.514 0 01-4.481-2.349 56.15 56.15 0 01-2.341-1.414 49.38 49.38 0 01-2.207-1.488 43.347 43.347 0 01-2.056-1.565 36.491 36.491 0 01-1.888-1.642 30.243 30.243 0 01-1.71-1.72 26.808 26.808 0 01-1.514-1.802z" fill="#000"/><path d="M17.754 39.741l.852.295-.59 1.705-.851-.294a15.928 15.928 0 01-1.946-.822 17.43 17.43 0 01-1.817-1.058c-.586-.39-1.15-.812-1.69-1.267a21.675 21.675 0 01-1.56-1.452 24.9 24.9 0 01-1.436-1.61 28.19 28.19 0 01-1.312-1.746 30.451 30.451 0 01-1.19-1.86 34.677 34.677 0 01-1.07-1.95 38.905 38.905 0 01-1.788-4.086 42.5 42.5 0 01-1.323-4.185 41.718 41.718 0 01-.86-4.114 38.348 38.348 0 01-.258-1.977 33.356 33.356 0 01-.163-2.505 78.58 78.58 0 003.058-1.491c.814-.419 1.62-.854 2.417-1.305a57.77 57.77 0 002.298-1.37c.733-.46 1.454-.94 2.162-1.437a42.99 42.99 0 002-1.5 33.517 33.517 0 001.825-1.56 28.312 28.312 0 001.628-1.62A22.84 22.84 0 0017.555.857l.55-.715 1.43 1.098-.548.715a26.02 26.02 0 01-1.524 1.806 30.657 30.657 0 01-1.73 1.721 36.279 36.279 0 01-1.921 1.64 44.133 44.133 0 01-2.088 1.566 53.746 53.746 0 01-2.24 1.487 62.922 62.922 0 01-4.85 2.753c-.671.345-1.345.681-2.024 1.006a34.793 34.793 0 00.345 3.082 41.36 41.36 0 002.09 7.951 37.367 37.367 0 001.707 3.898c.318.627.656 1.243 1.015 1.849a28.35 28.35 0 001.121 1.752 24.999 24.999 0 002.558 3.125c.452.467.93.91 1.428 1.33.488.409.999.792 1.529 1.147.523.347 1.065.663 1.626.946.559.28 1.136.524 1.725.727z" fill="#000"/></svg>