<svg width="44" height="28" fill="none" xmlns="http://www.w3.org/2000/svg"><path d="M29.928.718c-2.987 0-5.87 1.015-8.189 2.871a12.98 12.98 0 00-7.66-2.478c-1.328 0-2.643.2-3.91.595l-.56.174.059.584a1.747 1.747 0 01-.492 1.402 1.61 1.61 0 01-.502.34l-.87.368.586.74c.72.911.647 2.214-.17 3.031a2.272 2.272 0 01-3.019.172l-.704-.562-.392.814a1.91 1.91 0 01-.363.523 1.724 1.724 0 01-1.402.502l-.584-.06-.174.56a13.08 13.08 0 003.238 13.16 13 13 0 009.254 3.83c3.015 0 5.872-1.013 8.185-2.875a12.973 12.973 0 007.667 2.48c7.215 0 13.083-5.87 13.083-13.085C43.012 6.588 37.142.718 29.927.718zM5.84 22.436a11.646 11.646 0 01-3.028-11.212 3.164 3.164 0 002.167-1.159c.507.25 1.07.383 1.639.383.99 0 1.92-.387 2.621-1.087a3.718 3.718 0 00.71-4.259 3.184 3.184 0 001.154-2.169c.97-.255 1.97-.384 2.977-.384 3.109 0 6.032 1.21 8.233 3.412 4.543 4.542 4.543 11.931 0 16.473a11.57 11.57 0 01-8.236 3.41 11.57 11.57 0 01-8.237-3.408zm24.087 3.014c-2.372 0-4.626-.701-6.57-2.029 5.071-5.105 5.062-13.383-.03-18.475a12.185 12.185 0 00-.442-.423 11.663 11.663 0 017.042-2.366c6.422 0 11.645 5.225 11.645 11.647.002 6.42-5.223 11.646-11.645 11.646z" fill="#000"/><path d="M14.852 10.235c.618 0 1.199-.24 1.633-.675a2.31 2.31 0 00-1.633-3.951c-.615 0-1.195.237-1.642.677a2.331 2.331 0 00.003 3.272 2.309 2.309 0 001.64.677zM14.227 7.3a.884.884 0 01.625-.255.873.873 0 01.622 1.495.896.896 0 01-1.244 0 .887.887 0 01-.003-1.24zm-8.402 5.354c-.619 0-1.199.24-1.643.685-.886.9-.886 2.366.004 3.272.438.438 1.02.68 1.639.68a2.318 2.318 0 000-4.638zm.621 2.941a.897.897 0 01-1.238.004.894.894 0 01-.003-1.247.874.874 0 011.243 0 .871.871 0 01-.002 1.243zm8.271 3.986a2.31 2.31 0 001.643-.684c.886-.9.886-2.367-.01-3.276a2.316 2.316 0 00-1.633-.668 2.33 2.33 0 00-1.639.671 2.318 2.318 0 001.64 3.957zm-.625-2.934a.884.884 0 01.625-.255c.236 0 .458.091.618.248.34.345.34.905.004 1.247a.896.896 0 01-1.243 0 .872.872 0 01-.004-1.24zm5.463-6.642c-.619 0-1.199.243-1.634.676a2.31 2.31 0 001.633 3.951 2.308 2.308 0 002.32-2.323 2.282 2.282 0 00-.68-1.624 2.303 2.303 0 00-1.64-.68zm.627 2.936a.917.917 0 01-1.247.004.873.873 0 010-1.243.875.875 0 011.247.005.858.858 0 01.255.61c0 .236-.092.46-.255.624zm-4.92 6.831a2.3 2.3 0 00-1.639.68 2.31 2.31 0 001.637 3.95c.615 0 1.195-.237 1.643-.677.885-.9.885-2.367-.004-3.272a2.297 2.297 0 00-1.637-.681zm.627 2.936a.917.917 0 01-1.247.003.874.874 0 010-1.243.874.874 0 011.24-.004.896.896 0 01.007 1.244zM30.111 8.873c.886-.9.886-2.366-.009-3.275a2.316 2.316 0 00-1.633-.669c-.615 0-1.195.237-1.639.672a2.318 2.318 0 103.281 3.272zm-2.268-2.251a.884.884 0 01.626-.255c.235 0 .458.091.618.248.34.345.34.905.004 1.247a.896.896 0 01-1.244 0 .872.872 0 01-.003-1.24zm10.043 5.968a2.278 2.278 0 00-1.639-.685c-.62 0-1.204.243-1.646.685-.885.9-.885 2.366.01 3.275.438.432 1.02.669 1.636.669a2.305 2.305 0 002.314-2.311 2.291 2.291 0 00-.675-1.633zm-1.02 2.255c-.328.327-.922.316-1.239.003a.894.894 0 01-.003-1.247.88.88 0 111.241 1.244zm-6.404 3.445c-.615 0-1.195.238-1.643.678-.886.9-.886 2.367.006 3.273.438.438 1.02.68 1.639.68a2.32 2.32 0 001.635-3.962 2.325 2.325 0 00-1.637-.668zm.621 2.933a.897.897 0 01-1.238.004.895.895 0 01-.009-1.243.884.884 0 01.626-.256.88.88 0 01.622.252.87.87 0 010 1.243zm.144-6.398a2.318 2.318 0 000-3.276 2.293 2.293 0 00-1.633-.672c-.62 0-1.199.24-1.634.672a2.304 2.304 0 00-.68 1.639c0 .618.242 1.198.675 1.633a2.277 2.277 0 001.637.685 2.286 2.286 0 001.635-.681zm-2.508-1.639a.874.874 0 011.491-.622.871.871 0 01-.004 1.247.874.874 0 01-1.488-.625z" fill="#000"/></svg>