<svg width="42" height="40" fill="none" xmlns="http://www.w3.org/2000/svg"><path d="M21.92.68A19.325 19.325 0 004.462 11.72H1.68a.919.919 0 00-.823 1.332l3.68 7.36a.922.922 0 001.646 0l3.68-7.36a.919.919 0 00-.823-1.331H6.526A17.482 17.482 0 0121.92 2.52c9.64 0 17.48 7.842 17.48 17.48 0 9.638-7.841 17.48-17.48 17.48A17.413 17.413 0 015.713 26.548a.922.922 0 00-1.707.69c2.97 7.34 10 12.082 17.914 12.082 10.654 0 19.32-8.666 19.32-19.32S32.574.68 21.92.68zM5.36 17.942L3.168 13.56H7.55l-2.19 4.382zM25.6 21.84a2.763 2.763 0 01-2.76 2.76v1.38a.92.92 0 11-1.84 0V24.6h-1.38a.92.92 0 110-1.84h3.22c.507 0 .92-.413.92-.92a.922.922 0 00-.92-.92H21a2.763 2.763 0 01-2.76-2.76A2.763 2.763 0 0121 15.4v-1.38a.92.92 0 111.84 0v1.38h1.38a.92.92 0 110 1.84H21a.922.922 0 00-.92.92c0 .507.413.92.92.92h1.84a2.763 2.763 0 012.76 2.76zm-3.68 8.74c-5.835 0-10.58-4.745-10.58-10.58S16.085 9.42 21.92 9.42 32.5 14.165 32.5 20s-4.745 10.58-10.58 10.58zm0-19.32c-4.82 0-8.74 3.92-8.74 8.74s3.92 8.74 8.74 8.74 8.74-3.92 8.74-8.74-3.92-8.74-8.74-8.74z" fill="#000"/></svg>